<svg width="520" height="128" viewBox="0 0 520 128" fill="none" xmlns="http://www.w3.org/2000/svg">
<mask id="mask0_1040_522" style="mask-type:luminance" maskUnits="userSpaceOnUse" x="0" y="8" width="168" height="112">
<path d="M168 8H0V120H168V8Z" fill="white"/>
</mask>
<g mask="url(#mask0_1040_522)">
<path d="M56 8C25.072 8 0 33.072 0 64C0 94.928 25.072 120 56 120C86.928 120 112 94.928 112 64C112 33.072 86.928 8 56 8Z" fill="#327EFF"/>
<path d="M112 8C81.072 8 56 33.072 56 64C56 94.928 81.072 120 112 120C142.928 120 168 94.928 168 64C168 33.072 142.928 8 112 8Z" fill="#FFDE2D"/>
<path d="M56 64C56 33.0721 81.072 8 112 8V64H56Z" fill="#FF6446"/>
<path d="M112 64C112 94.928 86.928 120 56 120V64H112Z" fill="#FF6446"/>
</g>
<path d="M219.328 97.4401C200.032 97.4401 186.304 82.5601 186.304 61.9201C186.304 41.5681 198.976 26.0161 219.232 26.0161C236.128 26.0161 246.112 36.0961 247.552 49.1521H233.728C232.48 42.2401 227.296 37.7281 219.232 37.7281C206.56 37.7281 200.512 48.2881 200.512 61.9201C200.512 75.9361 207.808 86.0161 219.328 86.0161C227.488 86.0161 233.248 81.1201 234.112 73.9201H247.744C247.36 79.9681 244.768 85.8241 240.16 90.1441C235.456 94.5601 228.832 97.4401 219.328 97.4401ZM266.905 27.3601V53.1841H267.193C270.745 48.0001 274.777 45.4081 281.497 45.4081C291.673 45.4081 298.489 53.0881 298.489 63.8401V96.0001H285.433V65.7601C285.433 60.4801 282.361 56.7361 276.889 56.7361C271.129 56.7361 266.905 61.3441 266.905 68.0641V96.0001H253.849V27.3601H266.905ZM319.113 46.7521V54.6241H319.401C322.377 49.0561 325.737 46.1761 331.497 46.1761C332.937 46.1761 333.801 46.2721 334.569 46.5601V57.9841H334.281C325.737 57.1201 319.593 61.6321 319.593 72.0001V96.0001H306.537V46.7521H319.113ZM362.115 97.4401C346.851 97.4401 336.387 86.1121 336.387 71.4241C336.387 56.7361 346.851 45.4081 362.115 45.4081C377.379 45.4081 387.843 56.7361 387.843 71.4241C387.843 86.1121 377.379 97.4401 362.115 97.4401ZM362.115 87.4561C370.083 87.4561 374.595 81.0241 374.595 71.4241C374.595 61.8241 370.083 55.2961 362.115 55.2961C354.051 55.2961 349.635 61.8241 349.635 71.4241C349.635 81.0241 354.051 87.4561 362.115 87.4561ZM393.912 96.0001V46.7521H406.488V53.3761H406.776C409.464 48.8641 414.264 45.4081 421.08 45.4081C427.32 45.4081 432.312 48.8641 434.712 54.0481H434.904C438.264 48.6721 443.448 45.4081 449.688 45.4081C460.056 45.4081 465.912 52.1281 465.912 62.8801V96.0001H452.856V65.0881C452.856 59.5201 450.072 56.6401 445.272 56.6401C439.8 56.6401 436.44 60.8641 436.44 67.3921V96.0001H423.384V65.0881C423.384 59.5201 420.6 56.6401 415.8 56.6401C410.52 56.6401 406.968 60.8641 406.968 67.3921V96.0001H393.912ZM504.984 96.0001C504.216 95.0401 503.736 92.7361 503.448 90.5281H503.256C500.76 94.2721 497.208 97.1521 488.76 97.1521C478.68 97.1521 471.576 91.8721 471.576 82.0801C471.576 71.2321 480.408 67.7761 491.352 66.2401C499.512 65.0881 503.256 64.4161 503.256 60.6721C503.256 57.1201 500.472 54.8161 495 54.8161C488.856 54.8161 485.88 57.0241 485.496 61.7281H473.88C474.264 53.0881 480.696 45.5041 495.092 45.5041C509.88 45.5041 515.832 52.1281 515.832 63.6481V88.7041C515.832 92.4481 516.408 94.6561 517.56 95.5201V96.0001H504.984ZM491.928 88.0321C499.416 88.0321 503.544 83.4241 503.544 78.6241V71.2321C501.24 72.5761 497.688 73.3441 494.42 74.1121C487.608 75.6481 484.248 77.1841 484.248 81.7921C484.248 86.4001 487.32 88.0321 491.928 88.0321Z" fill="black"/>
</svg>
