<svg width="524" height="128" viewBox="0 0 524 128" fill="none" xmlns="http://www.w3.org/2000/svg">
<mask id="mask0_1040_513" style="mask-type:luminance" maskUnits="userSpaceOnUse" x="0" y="8" width="172" height="112">
<path d="M172 8H0V120H172V8Z" fill="white"/>
</mask>
<g mask="url(#mask0_1040_513)">
<path fill-rule="evenodd" clip-rule="evenodd" d="M111.314 16.7164C83.6907 16.7164 62.1191 38.0015 62.1191 63.9608H53.5039C53.5039 32.9774 79.2031 8.10107 111.314 8.10107C143.298 8.10107 169.703 32.2621 169.703 63.3676C169.703 94.4104 143.365 119.228 111.315 119.228C100.433 119.228 90.2267 116.376 81.4855 111.398L85.7487 103.912C93.2103 108.161 101.95 110.612 111.315 110.612C139 110.612 161.087 89.2684 161.087 63.3676C161.087 37.5306 139.067 16.7164 111.314 16.7164Z" fill="white"/>
<path fill-rule="evenodd" clip-rule="evenodd" d="M58.388 16.6154C30.7027 16.6154 8.6154 37.9595 8.6154 63.86C8.6154 89.7668 30.1322 110.616 57.8104 110.616C85.5508 110.616 107.583 89.708 107.583 63.86H116.199C116.199 94.9544 89.806 119.231 57.8104 119.231C25.7535 119.231 0 94.8956 0 63.86C0 32.8173 26.3379 8 58.388 8C69.136 8 79.2256 10.7817 87.8952 15.6473L83.6784 23.1604C76.278 19.0069 67.6376 16.6154 58.388 16.6154Z" fill="white"/>
<path fill-rule="evenodd" clip-rule="evenodd" d="M107.029 17.4708C81.6259 19.6732 62.1191 41.3888 62.1191 66.158V110.332C87.8103 108.319 107.571 88.4512 107.584 63.9884L107.029 17.4708ZM53.5039 66.158C53.5039 35.3499 78.9943 8.67188 111.284 8.67188H115.54L116.2 63.9636C116.2 95.0816 89.7819 119.115 57.8115 119.115H53.5039V66.158Z" fill="white"/>
</g>
<path d="M223.328 97.4401C204.032 97.4401 190.304 82.5601 190.304 61.9201C190.304 41.5681 202.976 26.0161 223.232 26.0161C240.128 26.0161 250.112 36.0961 251.552 49.1521H237.728C236.48 42.2401 231.296 37.7281 223.232 37.7281C210.56 37.7281 204.512 48.2881 204.512 61.9201C204.512 75.9361 211.808 86.0161 223.328 86.0161C231.488 86.0161 237.248 81.1201 238.112 73.9201H251.744C251.36 79.9681 248.768 85.8241 244.16 90.1441C239.456 94.5601 232.832 97.4401 223.328 97.4401ZM270.905 27.3601V53.1841H271.193C274.745 48.0001 278.777 45.4081 285.497 45.4081C295.673 45.4081 302.489 53.0881 302.489 63.8401V96.0001H289.433V65.7601C289.433 60.4801 286.361 56.7361 280.889 56.7361C275.129 56.7361 270.905 61.3441 270.905 68.0641V96.0001H257.849V27.3601H270.905ZM323.113 46.7521V54.6241H323.401C326.377 49.0561 329.737 46.1761 335.497 46.1761C336.937 46.1761 337.801 46.2721 338.569 46.5601V57.9841H338.281C329.737 57.1201 323.593 61.6321 323.593 72.0001V96.0001H310.537V46.7521H323.113ZM366.115 97.4401C350.851 97.4401 340.387 86.1121 340.387 71.4241C340.387 56.7361 350.851 45.4081 366.115 45.4081C381.379 45.4081 391.843 56.7361 391.843 71.4241C391.843 86.1121 381.379 97.4401 366.115 97.4401ZM366.115 87.4561C374.083 87.4561 378.595 81.0241 378.595 71.4241C378.595 61.8241 374.083 55.2961 366.115 55.2961C358.051 55.2961 353.635 61.8241 353.635 71.4241C353.635 81.0241 358.051 87.4561 366.115 87.4561ZM397.912 96.0001V46.7521H410.488V53.3761H410.776C413.464 48.8641 418.264 45.4081 425.08 45.4081C431.32 45.4081 436.312 48.8641 438.712 54.0481H438.904C442.264 48.6721 447.448 45.4081 453.688 45.4081C464.056 45.4081 469.912 52.1281 469.912 62.8801V96.0001H456.856V65.0881C456.856 59.5201 454.072 56.6401 449.272 56.6401C443.8 56.6401 440.44 60.8641 440.44 67.3921V96.0001H427.384V65.0881C427.384 59.5201 424.6 56.6401 419.8 56.6401C414.52 56.6401 410.968 60.8641 410.968 67.3921V96.0001H397.912ZM508.984 96.0001C508.216 95.0401 507.736 92.7361 507.448 90.5281H507.256C504.76 94.2721 501.208 97.1521 492.76 97.1521C482.68 97.1521 475.576 91.8721 475.576 82.0801C475.576 71.2321 484.408 67.7761 495.352 66.2401C503.512 65.0881 507.256 64.4161 507.256 60.6721C507.256 57.1201 504.472 54.8161 499 54.8161C492.856 54.8161 489.88 57.0241 489.496 61.7281H477.88C478.264 53.0881 484.696 45.5041 499.092 45.5041C513.88 45.5041 519.832 52.1281 519.832 63.6481V88.7041C519.832 92.4481 520.408 94.6561 521.56 95.5201V96.0001H508.984ZM495.928 88.0321C503.416 88.0321 507.544 83.4241 507.544 78.6241V71.2321C505.24 72.5761 501.688 73.3441 498.42 74.1121C491.608 75.6481 488.248 77.1841 488.248 81.7921C488.248 86.4001 491.32 88.0321 495.928 88.0321Z" fill="white"/>
</svg>
