<?xml version="1.0" encoding="UTF-8"?>
<svg width="100pt" height="100pt" version="1.1" viewBox="0 0 100 100" xmlns="http://www.w3.org/2000/svg">
 <g>
  <path d="m26.418 39.379h-17.188c-0.90234 0-1.6367 0.73047-1.6367 1.6367s0.73047 1.6367 1.6367 1.6367h17.191c0.90234 0 1.6367-0.73047 1.6367-1.6367-0.003906-0.90625-0.73438-1.6367-1.6406-1.6367z"/>
  <path d="m5.9531 51.371h17.191c0.90234 0 1.6367-0.73047 1.6367-1.6367s-0.73047-1.6367-1.6367-1.6367h-17.191c-0.90234 0-1.6367 0.73047-1.6367 1.6367s0.73438 1.6367 1.6367 1.6367z"/>
  <path d="m5.9531 60.094h17.191c0.90234 0 1.6367-0.73047 1.6367-1.6367s-0.73047-1.6367-1.6367-1.6367h-17.191c-0.90234 0-1.6367 0.73047-1.6367 1.6367s0.73438 1.6367 1.6367 1.6367z"/>
  <path d="m9.2305 68.812h17.191c0.90234 0 1.6367-0.73047 1.6367-1.6367s-0.73047-1.6367-1.6367-1.6367h-17.191c-0.90234 0-1.6367 0.73047-1.6367 1.6367s0.73047 1.6367 1.6367 1.6367z"/>
  <path d="m61.398 21.453c-18 0-32.645 14.645-32.645 32.645s14.645 32.641 32.645 32.641 32.645-14.645 32.645-32.645c-0.003907-17.996-14.645-32.641-32.645-32.641zm0 60.375c-15.293 0-27.73-12.441-27.73-27.73 0-15.293 12.441-27.73 27.73-27.73 15.293 0 27.73 12.441 27.73 27.73 0 15.289-12.441 27.73-27.73 27.73z"/>
  <path d="m73.871 43.988l-13.711 7.9883c-1.1719 0.68359-1.5703 2.1875-0.88672 3.3594 0.45703 0.78125 1.2773 1.2188 2.125 1.2188 0.42187 0 0.84375-0.10938 1.2344-0.33594l9.7578-5.6836c0.375 1.1523 0.57422 2.3438 0.57422 3.5547 0 2.3125-0.68359 4.5508-1.9805 6.4727-0.71875 1.0703-1.6211 1.9805-2.6367 2.7461 0.10156-0.31641 0.003906-0.67578-0.27734-0.89453-0.35937-0.27344-0.87109-0.20703-1.1484 0.15234l-2.3477 3.0586c-0.19922 0.26172-0.22656 0.61328-0.0625 0.89844 0.14453 0.26172 0.42188 0.41797 0.71484 0.41797 0.027344 0 0.058594 0 0.085938-0.003906l3.8203-0.40234c0.44922-0.046875 0.77344-0.44922 0.73047-0.89844-0.046875-0.44531-0.4375-0.76953-0.88672-0.72656 1.3164-0.92188 2.4609-2.0781 3.3672-3.4297 1.4766-2.1953 2.2578-4.75 2.2578-7.3867 0-1.5039-0.26953-2.9727-0.77344-4.3945l2.5195-1.4688c1.1719-0.68359 1.5703-2.1875 0.88672-3.3594s-2.1914-1.5664-3.3633-0.88281z"/>
 </g>
</svg>
