<?xml version="1.0" encoding="UTF-8"?>
<svg width="100pt" height="100pt" version="1.1" viewBox="0 0 100 100" xmlns="http://www.w3.org/2000/svg">
 <g>
  <path d="m69.199 50.5h-38.598c-0.5 0-1-0.30078-1.3008-0.80078s-0.30078-1 0-1.5l19.301-33.398c0.30078-0.5 0.80078-0.69922 1.3008-0.69922s1 0.30078 1.3008 0.69922l19.301 33.398c0.30078 0.5 0.30078 1 0 1.5-0.30469 0.5-0.80469 0.80078-1.3047 0.80078zm-36-3h33.398l-16.699-28.898z"/>
  <path d="m81.898 85.898h-30.098c-0.80078 0-1.5-0.69922-1.5-1.5v-30.098c0-0.80078 0.69922-1.5 1.5-1.5h30.102c0.80078 0 1.5 0.69922 1.5 1.5v30.102c-0.003906 0.79688-0.70312 1.4961-1.5039 1.4961zm-28.598-3h27.102l-0.003906-27.098h-27.098z"/>
  <path d="m30.602 85.801c-9.1016 0-16.5-7.3984-16.5-16.5 0-9.1016 7.3984-16.5 16.5-16.5 9.1016 0 16.5 7.3984 16.5 16.5 0 9.0977-7.4023 16.5-16.5 16.5zm0-30c-7.3984 0-13.5 6.1016-13.5 13.5 0 7.3984 6.1016 13.5 13.5 13.5 7.3984 0 13.5-6.1016 13.5-13.5 0-7.4023-6.1016-13.5-13.5-13.5z"/>
 </g>
</svg>
