<?xml version="1.0" encoding="UTF-8"?>
<svg width="100pt" height="100pt" version="1.1" viewBox="0 0 100 100" xmlns="http://www.w3.org/2000/svg">
 <path d="m32.5 94.5c-4-0.80078-6.6992-4.3008-10.301-5-0.89844-1.1016-0.80078-2-0.60156-2.8008 0.69922-4.1992 2.3984-8 3.8008-12 1.8984-5.5 3.6016-11.199 5.1992-16.5-2.1992-3.3008-4.6016-5.6992-7.1992-8-1.3984-1.1992-1.8008-2.8984-1.1016-4.6016 1.1992-3.1016 1.8008-6.1992 3.6992-9.1992 1.6016-2.5 2.6016-5.5 3.6992-8.3984 1.1016-3.1016 2.3984-6.1992 4-9.1016 2-3.8008 3.3008-7.6992 4.6992-11.699 0.10156-0.69922 0.19922-1.6016 1.1016-1.6992 4.8984 0 9.8984-0.10156 14.801 0 4.8984 0.10156 9.8984 0.30078 14.801 0 2.6016 3.1992 5.5 6 9 8.8008 0.39844 0.60156 0.39844 1.6016 0.30078 2.8008-6.1992 5.3008-10.801 12.398-16.199 18.699-2.8008 3.1992-2.6992 4.3008 0.5 7.3008 2 1.8984 4.3008 3.6016 5.6992 6.1016-0.5 1.6016-1.5 2.8008-2.8984 4-2.8008 2.5-5.3008 5.1992-7.5 8.1992-4.1016 5.5-9 10.301-13 15.801-3 4.1016-5.6992 8.3008-9.1016 12.102-0.5 0.60156-0.69922 1.3008-1 2-0.5 1.0938-0.79688 2.4961-2.3984 3.1953zm-6.6016-48.199c4.3008 0.80078 8.3984-0.19922 12.801 0-4 12.699-9.1992 24.398-12 37.102 10.199-13 20.199-26 29.102-40-4.5-0.19922-8.8984 1-13.199 0.5 7.8008-11.699 15.602-23.199 23.199-35.398-8.1992 0.99609-16.199-0.70312-23.801 0.29688-6.5 12.098-10.398 24.898-16.102 37.5zm38-31.902c2.6016 1.6016 4.1992 4.3984 6.8008 5.8008 0.69922-0.39844 1.1016-0.69922 1.1992-1.6016-2.1992-2-4.5-4.1016-6.6992-6-1 0.50391-1.3008 0.90234-1.3008 1.8008zm-5.1992 20.102c-1.8984-1.6016-3.1016-3.8008-5.1992-5-0.89844 0.69922-1.1016 1.5-1.5 2.5 1.5 1.5 2.5 3.6016 4.8984 4.3984-1-2.3008-3.3984-3.1992-3.8984-5.8008 2.3008 1.4023 3.1016 4.0039 5.6992 3.9023zm-3.5 24.398c-1.6992-1.3984-3.3008-2.8008-4.8008-4.1016-0.80078 0.5-1.1992 1-1 1.6992 1.3984 1.3008 2.8984 2.6992 4.3008 4h0.39844c0.20312-0.39453 0.90234-0.59766 1.1016-1.5977zm17.602-41.5c-0.19922-1.3984-5.6016-7.1992-6.3984-7-0.5 0.30078-0.80078 0.80078-0.60156 1.5 2.1992 1.7031 4.3008 3.9023 7 5.5zm-20.402 35.102c-0.80078 0.30078-1.1992 0.69922-1.1992 1.6016 1.8008 1.1992 3.1016 3.3008 5.8984 3.5-1.6992-1.9023-3.0977-3.5-4.6992-5.1016zm10.5-36.801c1.6992 2.6992 4.1992 4.5 6.3008 6.6992 0.19922-1.3984-3.3008-5.2969-6.3008-6.6992zm4.1016 9c-1.6992-2.3984-4.1992-3.8008-6.3008-5.5 1.3008 2.8008 3.8008 4.1016 6.3008 5.5zm-21.699 36.5c-0.30078 1.5 1.6016 3.3984 4.6016 4-1.4023-1.3984-3.0039-2.6992-4.6016-4zm-13.902 19.602c1.1992 1 2.1016 2.6992 4.1992 2.6992-0.39844-1.5-2.6992-4.1016-3.5-4-0.59766 0.10156-0.69922 0.5-0.69922 1.3008zm24.5-42.602c-1.6016-2.1992-3-3.6992-4.8008-5.1992-0.097656 2.3008 1.7031 4.1992 4.8008 5.1992zm-21.598 47.199c-1.1992-1.6016-2.5-2.8008-4-3.8008-0.80078 2.0039 1 3.7031 4 3.8008zm12.898-17c-1-2.1016-2.8984-3.6016-4.5-3.6992 1.3008 1.6992 2.4023 3.1992 4.5 3.6992zm-4.0977 5.3008c-1.8008-3-3.1992-3.8984-4.5-3.1992 1.1992 1.6992 2.5977 2.6992 4.5 3.1992zm-15.402 11.301c1.5 1 2.6992 2.5 4.6016 2.3984-1.3008-1.0977-2.3008-2.5-3.5-3.3984-0.60156 0-0.80078 0.30078-1.1016 1zm30.402-29.5c-3-4-3.5-4.3008-5.3008-4.5 1.5977 1.8984 3.3984 3.3008 5.3008 4.5zm0.39844-32.898c1.5 2.3008 3.3984 4.1016 5.8984 5.1016-2.0977-1.4023-3.5-3.8047-5.8984-5.1016zm-21.398 58.199c-0.89844-1.5-2-2.8008-3.8984-3.1992 0.39844 2.1992 2.0977 2.6992 3.8984 3.1992zm15.398-18.902c-1.3984-1.6016-2.3008-3.6016-4.5-4.1016 1.1016 1.8047 2.3008 3.5039 4.5 4.1016zm-25.301-14c1.6992 1.6992 2.8008 3.1992 4.6016 3.8008-0.90234-1.6992-1.6016-3.6992-4.6016-3.8008zm30.5-23.898c-0.10156 0.10156-0.19922 0.30078-0.30078 0.39844 1.1016 2 2.8984 3.5 5.8984 4.8008-2.1953-1.8984-3.8984-3.5977-5.5977-5.1992zm-11.801 46.5c-1.3008-2-2.5-3.3008-4.3008-3.8984 0.80078 1.6992 2.0039 3 4.3008 3.8984zm-5.7969 6.6992c-1.1016-1.3984-2.1016-2.8008-4.3008-3.5 1 2.3008 2.5977 3 4.3008 3.5zm19.598-26.098c-0.89844-1.8984-2.1016-3.3984-4.1992-4.1016 1.3984 1.5 2.3984 3.1992 4.1992 4.1016zm6.4023-24.5c-1.5-2-3.3008-2.6992-4.6016-3.8984 0.89844 1.5977 2.1992 2.9961 4.6016 3.8984zm-31.402 49.297c0.80078 1.6992 2.1992 2.5 3.8984 3-1.1992-1-1.9961-2.6992-3.8984-3zm6.5-0.39844c-0.89844-1.6016-2-2.8984-3.8984-3.3008 1 1.6992 2.5977 2.4023 3.8984 3.3008zm-0.69922-7.1016c0.80078 1.8008 2.5 2.5 3.8984 3.6016-1.1992-1.5-2.2969-2.8008-3.8984-3.6016zm14-40.199c1.8008 2.6016 2.3008 3 4 3.3984-1.1992-1.2969-2.3984-2.3984-4-3.3984zm9.8008-8.1992c-0.69922-1-1.1016-2.3984-2.8984-2.6992 0.69922 1.5977 1.6992 2.1992 2.8984 2.6992zm-6.6016 7.3984c1.1016 1.1016 1.8984 2.5 3.5 3-0.89844-1.2969-2-2.2969-3.5-3zm-3 21.402c0.69922 1.3984 1.6016 2.6016 3.1016 3.1016-0.80078-1.2031-1.8008-2.4023-3.1016-3.1016zm-4.1992-7.6016c0.10156-0.10156 0.30078-0.19922 0.39844-0.39844-0.89844-1-1.8008-1.8984-2.6992-2.8984-0.10156 0.10156-0.30078 0.30078-0.39844 0.39844 1 1 1.8008 2 2.6992 2.8984zm-19 7.1016c0.30078 1.1016 1.1016 1.8008 2 2.3008-0.5-0.90234-1-1.9023-2-2.3008zm18 14c-0.69922-1.1016-1.3984-2.1016-2.6992-2.5 0.59766 1.0977 1.5 2 2.6992 2.5z"/>
</svg>
