<?xml version="1.0" encoding="UTF-8"?>
<svg width="100pt" height="100pt" version="1.1" viewBox="0 0 100 100" xmlns="http://www.w3.org/2000/svg">
 <g>
  <path d="m18.75 53.312v26.375c0 0.86328 0.69922 1.5625 1.5625 1.5625h26.375c0.86328 0 1.5625-0.69922 1.5625-1.5625v-26.375c0-0.86328-0.69922-1.5625-1.5625-1.5625h-26.375c-0.86328 0-1.5625 0.69922-1.5625 1.5625zm3.125 1.5625h23.25v23.25h-23.25z"/>
  <path d="m33.5 50h33c0.55859 0 1.0781-0.30078 1.3555-0.78516 0.27734-0.48828 0.27344-1.0859-0.007813-1.5664l-16.5-28.125c-0.5625-0.95703-2.1328-0.95703-2.6953 0l-16.5 28.121c-0.28516 0.48047-0.28516 1.082-0.007813 1.5664 0.27734 0.48828 0.79297 0.78906 1.3555 0.78906zm16.5-26.602 13.773 23.473-27.547 0.003906z"/>
  <path d="m66.5 51.75c-8.1328 0-14.75 6.6172-14.75 14.75s6.6172 14.75 14.75 14.75 14.75-6.6172 14.75-14.75-6.6172-14.75-14.75-14.75zm0 26.375c-6.4102 0-11.625-5.2148-11.625-11.625s5.2148-11.625 11.625-11.625 11.625 5.2148 11.625 11.625-5.2148 11.625-11.625 11.625z"/>
  <path d="m37.434 75.609h-5.8594c-0.43359 0-0.78125 0.34766-0.78125 0.78125s0.34766 0.78125 0.78125 0.78125h5.8594c0.43359 0 0.78125-0.34766 0.78125-0.78125s-0.34766-0.78125-0.78125-0.78125z"/>
  <path d="m23.609 62.305c-0.43359 0-0.78125 0.34766-0.78125 0.78125v3.7773c0 0.43359 0.34766 0.78125 0.78125 0.78125s0.78125-0.34766 0.78125-0.78125v-3.7773c0-0.43359-0.34766-0.78125-0.78125-0.78125z"/>
  <path d="m44.68 35.895c-0.36719-0.21094-0.85156-0.097656-1.0703 0.27734l-1.2891 2.1953c-0.21875 0.37109-0.09375 0.85156 0.27734 1.0703 0.125 0.070312 0.25781 0.10547 0.39453 0.10547 0.26562 0 0.52734-0.13672 0.67578-0.38672l1.2891-2.1953c0.21875-0.37109 0.09375-0.84766-0.27734-1.0664z"/>
  <path d="m52.297 29.191-1.6211-2.7656c-0.14062-0.23828-0.39844-0.38281-0.67578-0.38281s-0.53516 0.14844-0.67578 0.38672l-3.7344 6.3672c-0.21875 0.37109-0.09375 0.85156 0.27734 1.0703 0.125 0.070312 0.25781 0.10547 0.39453 0.10547 0.26562 0 0.52734-0.13672 0.67578-0.38672l3.0625-5.2188 0.94922 1.6172c0.21875 0.375 0.70312 0.48828 1.0703 0.27734 0.37109-0.21875 0.49609-0.69531 0.27734-1.0703z"/>
  <path d="m60.992 57.363c-1.0195 0.61328-1.9258 1.3945-2.6953 2.3164-0.27734 0.33203-0.23047 0.82422 0.097656 1.1016 0.14844 0.12109 0.32422 0.17969 0.5 0.17969 0.22266 0 0.44531-0.097657 0.60156-0.28125 0.66016-0.78906 1.4336-1.457 2.3008-1.9805 0.37109-0.22266 0.48828-0.70312 0.26562-1.0703-0.22266-0.37109-0.70312-0.48828-1.0703-0.26562z"/>
  <path d="m77.117 65.41c-0.042969-0.43359-0.45313-0.73828-0.85547-0.69922-0.42969 0.042968-0.74219 0.42578-0.69922 0.85547 0.03125 0.30859 0.046875 0.61719 0.046875 0.93359 0 5.0234-4.0859 9.1094-9.1094 9.1094-0.48047 0-0.96094-0.035156-1.4297-0.11328-0.40234-0.058594-0.82422 0.22266-0.89453 0.65234-0.066406 0.42578 0.22266 0.82422 0.65234 0.89453 0.54688 0.085937 1.1094 0.12891 1.6719 0.12891 5.8828 0 10.672-4.7852 10.672-10.672 0-0.36719-0.019531-0.73047-0.054687-1.0898z"/>
 </g>
</svg>
