<?xml version="1.0" encoding="UTF-8"?>
<svg width="100pt" height="100pt" version="1.1" viewBox="0 0 100 100" xmlns="http://www.w3.org/2000/svg">
 <path d="m80.359 43.016c-4.7109 0-8.6445 3.375-9.5195 7.8359l-16.648-2.7852c0.070313-0.50391 0.10938-1.0195 0.10938-1.543 0-2.6836-0.96875-5.1406-2.5703-7.0508l15.316-13.527c1.0781 1.1133 2.5859 1.8047 4.25 1.8047 0.097656 0 0.19141-0.003906 0.28906-0.007812h0.003906 0.003906c3.1289-0.15625 5.6211-2.7461 5.6211-5.9141 0-2.2109-1.2188-4.1367-3.0156-5.1562-0.003907-0.003906-0.007813-0.003906-0.015625-0.007813-0.85547-0.48047-1.8438-0.75781-2.8906-0.75781-0.17578 0-0.35156 0.007812-0.51953 0.023438h-0.007813c-2.8398 0.25391-5.1133 2.5195-5.3672 5.3633 0 0.003906-0.003907 0.011719-0.003907 0.015625-0.015625 0.17188-0.023437 0.34375-0.023437 0.51953 0 1.4023 0.49219 2.6953 1.3125 3.7109l-15.32 13.523c-2.0039-2.1602-4.8633-3.5117-8.0352-3.5117-2.4062 0-4.6328 0.77734-6.4414 2.0977l-8.8906-11.625c1.4414-1.1914 2.4336-2.9062 2.6836-4.8516 0.003906-0.007813 0.003906-0.011719 0.003906-0.019531 0.039062-0.3125 0.0625-0.625 0.0625-0.94922 0-0.96094-0.18359-1.8789-0.51172-2.7227-0.003906-0.011719-0.007813-0.023438-0.015625-0.035157-0.37109-0.94141-0.92578-1.793-1.6211-2.5039-0.003906-0.003906-0.003906-0.007812-0.007812-0.011718-0.003906-0.003907-0.007813-0.003907-0.011719-0.007813-0.69531-0.71094-1.5352-1.2812-2.4648-1.6719-0.011719-0.003906-0.019531-0.007812-0.03125-0.011719-0.88672-0.36719-1.8594-0.57031-2.8789-0.57031-4.1562 0-7.5391 3.3828-7.5391 7.5391 0 1.0195 0.20313 1.9961 0.57422 2.8867 0.003907 0.003906 0.003907 0.011719 0.007813 0.019531 0.39062 0.92969 0.96094 1.7656 1.668 2.4648 0.003907 0.003906 0.003907 0.011719 0.011719 0.015625 0.007813 0.003906 0.015625 0.007812 0.023438 0.015625 0.71094 0.69141 1.5586 1.2461 2.4961 1.6172 0.011719 0.003907 0.027344 0.011719 0.039063 0.015626 0.84375 0.32812 1.7617 0.51172 2.7227 0.51172 0.32031 0 0.63672-0.023437 0.94922-0.0625h0.003906c0.007813 0 0.011719-0.003906 0.019532-0.003906 1.25-0.16016 2.4062-0.63281 3.3906-1.332l8.8945 11.625c-2.4961 2.0117-4.0977 5.0938-4.0977 8.5391 0 2.7461 1.0195 5.2617 2.6914 7.1875l-12.199 11.133c-0.09375-0.097656-0.1875-0.1875-0.28516-0.27344-0.003907-0.007812-0.007813-0.011718-0.007813-0.015625-0.003906-0.003906-0.011718-0.007812-0.019531-0.011719-0.74219-0.67187-1.6172-1.1992-2.582-1.5391-0.015625-0.007812-0.027344-0.011719-0.046875-0.015625-0.76562-0.26172-1.5859-0.40625-2.4414-0.40625-4.1562 0-7.5391 3.3828-7.5391 7.5391 0 0.85547 0.14453 1.6719 0.40625 2.4375 0.003906 0.015624 0.007812 0.03125 0.015625 0.046874 0.33984 0.96484 0.86328 1.8398 1.5391 2.5781 0.003906 0.007812 0.007812 0.015624 0.015624 0.019531 0.003907 0.003906 0.011719 0.007812 0.015626 0.011719 0.66797 0.72656 1.4805 1.3203 2.3828 1.7422 0.007812 0.003906 0.015625 0.007813 0.023438 0.011719 0.95703 0.44141 2.0195 0.6875 3.1406 0.6875 0.10547 0 0.21094-0.003906 0.3125-0.007813h0.003907c3.9062-0.16016 7.0547-3.3086 7.2188-7.2188 0.003906-0.10547 0.007812-0.21094 0.007812-0.31641 0-1.1211-0.24609-2.1875-0.6875-3.1406-0.003906-0.007812-0.003906-0.015625-0.007812-0.019531-0.28906-0.62109-0.66016-1.1953-1.0977-1.7148l12.199-11.133c2 2.082 4.8047 3.3828 7.9102 3.3828 1.3125 0 2.5742-0.23047 3.7422-0.66016l7.5 19.18c-2.0664 0.92578-3.5117 2.9961-3.5117 5.4062 0 3.2617 2.6523 5.918 5.918 5.918s5.9219-2.6562 5.9219-5.918c0-3.2656-2.6562-5.9219-5.9219-5.9219-0.66406 0-1.3047 0.10938-1.9023 0.3125l-7.5039-19.176c3.3281-1.4023 5.8242-4.4023 6.5195-8.0352l16.652 2.7852c-0.0625 0.4375-0.09375 0.88281-0.09375 1.332 0 5.3516 4.3516 9.6992 9.6992 9.6992 5.3477 0 9.6992-4.3516 9.6992-9.6992 0.003906-5.3398-4.3438-9.6914-9.6953-9.6914zm-8.0195-15.91 4.2383-4.2383c-0.42188 2.1367-2.1055 3.8203-4.2383 4.2383zm-2.3555-10.492-3.9023 3.9023c0.48047-1.9141 1.9883-3.418 3.9023-3.9023zm-3.5273 7.5586c-0.34375-0.70703-0.53516-1.5-0.53516-2.3398 0-0.13672 0.007813-0.26953 0.015625-0.40234l4.9609-4.957c0.13281-0.011718 0.26953-0.015625 0.40234-0.015625 0.83984 0 1.6328 0.19141 2.3398 0.53516l-0.91797 0.91797c-0.10547 0.10547-0.10547 0.27344 0 0.38281 0.050782 0.050781 0.12109 0.078125 0.19141 0.078125 0.066407 0 0.13672-0.027344 0.19141-0.078125l1.0273-1.0273c0.66016 0.41016 1.2266 0.96094 1.6562 1.6094l-1.0898 1.0859c-0.10547 0.10547-0.10547 0.27734 0 0.38281 0.054687 0.050781 0.12109 0.078125 0.19141 0.078125s0.14062-0.027344 0.19141-0.078125l0.98828-0.98828c0.39063 0.74219 0.60938 1.5859 0.60938 2.4805 0 0.058593-0.003907 0.11719-0.003907 0.17969l-5.1953 5.1953c-0.058594 0.003906-0.11719 0.003906-0.17969 0.003906-0.89453 0-1.7383-0.22266-2.4805-0.60938l4.4727-4.4727c0.10547-0.10547 0.10547-0.27344 0-0.38281-0.10547-0.10547-0.27734-0.10547-0.38281 0l-4.5742 4.5742c-0.64844-0.42969-1.1992-0.99219-1.6094-1.6562l4.1133-4.1133c0.10547-0.10547 0.10547-0.27344 0-0.38281-0.10547-0.10547-0.27344-0.10547-0.38281 0zm-44.738-10.801-5.3438 5.3438c0.58203-2.6602 2.6797-4.7617 5.3438-5.3438zm-3.207 12.023 4.5078-4.5078c0.10547-0.10547 0.10547-0.27734 0-0.38281-0.10547-0.10547-0.27344-0.10547-0.38281 0l-4.5117 4.5117c-0.53906-0.57031-0.98438-1.2305-1.3086-1.9531l3.75-3.75c0.10547-0.10547 0.10547-0.27734 0-0.38281-0.10547-0.10547-0.27344-0.10547-0.38281 0l-3.5859 3.5859c-0.25391-0.72266-0.39453-1.4961-0.39453-2.3047 0-0.19922 0.011719-0.39844 0.027344-0.59375l6.3789-6.3789c0.19531-0.015625 0.39453-0.027343 0.59375-0.027343 0.80859 0 1.582 0.14062 2.3047 0.39062l-3.0664 3.0664c-0.10547 0.10547-0.10547 0.27344 0 0.38281 0.050782 0.050781 0.12109 0.078125 0.19141 0.078125 0.066407 0 0.14063-0.027344 0.19141-0.078125l3.2305-3.2305c0.72656 0.32422 1.3867 0.76953 1.957 1.3086l-3.5898 3.5898c-0.10547 0.10547-0.10547 0.27734 0 0.38281 0.050781 0.050782 0.12109 0.078126 0.19141 0.078126 0.066407 0 0.14062-0.027344 0.19141-0.078126l3.5859-3.5859c0.52734 0.58203 0.96094 1.2539 1.2695 1.9922l-9.1602 9.1602c-0.73047-0.3125-1.4023-0.74219-1.9883-1.2734zm6.4727 1.5898 0.38672-0.38672c0.10547-0.10547 0.10547-0.27344 0-0.38281-0.10547-0.10547-0.27344-0.10547-0.38281 0l-0.94531 0.94531c-0.27344 0.03125-0.55078 0.050782-0.82812 0.050782-0.74609 0-1.4688-0.12109-2.1445-0.33984l8.8086-8.8086c0.21875 0.67578 0.33984 1.3984 0.33984 2.1445 0 0.28125-0.019531 0.55859-0.050781 0.82812l-3.3008 3.3008c-0.10547 0.10547-0.10547 0.27344 0 0.38281 0.050781 0.050781 0.12109 0.078125 0.19141 0.078125 0.066406 0 0.14062-0.027344 0.19141-0.078125l2.7422-2.7422c-0.64844 2.4414-2.5703 4.3672-5.0078 5.0078zm-14.504 43.129c0-3.0508 1.9648-5.6523 4.6953-6.6055l-3.4453 3.4453c-0.10547 0.10547-0.10547 0.27344 0 0.38281 0.050781 0.050781 0.12109 0.078124 0.19141 0.078124 0.066406 0 0.14062-0.027343 0.19141-0.078124l4.1016-4.1016c0.41016-0.074219 0.83203-0.11719 1.2695-0.11719 0.64453 0 1.2656 0.089843 1.8594 0.25391l-8.6055 8.6055c-0.16797-0.59766-0.25781-1.2188-0.25781-1.8633zm13.996 0c0 0.066407 0 0.13281-0.003906 0.19922l-0.64453 0.64453c-0.10547 0.10547-0.10547 0.27344 0 0.38281 0.050781 0.050781 0.12109 0.078125 0.19141 0.078125 0.066407 0 0.14062-0.027344 0.19141-0.078125l0.19141-0.19141c-0.45312 3.0312-2.8555 5.4336-5.8867 5.8867l3.4883-3.4883c0.10547-0.10547 0.10547-0.27344 0-0.38281-0.10547-0.10547-0.27734-0.10547-0.38281 0l-3.9414 3.9414c-0.066407 0.003906-0.13281 0.007812-0.19922 0.007812-0.91016 0-1.7773-0.17578-2.5742-0.49219l9.082-9.082c0.31641 0.79688 0.48828 1.6641 0.48828 2.5742zm-0.72656-3.1016-9.375 9.375c-0.70703-0.35156-1.3438-0.81641-1.8906-1.375l5.2812-5.2812c0.10547-0.10547 0.10547-0.27344 0-0.38281-0.10547-0.10547-0.27344-0.10547-0.38281 0l-5.2656 5.2656c-0.51172-0.60938-0.92188-1.3047-1.2031-2.0625l8.9961-8.9961c0.75781 0.28125 1.4531 0.69141 2.0625 1.2031l-2.7148 2.7148c-0.10547 0.10547-0.10547 0.27344 0 0.38281 0.050782 0.050781 0.12109 0.078125 0.19141 0.078125 0.070312 0 0.14062-0.027344 0.19141-0.078125l2.7344-2.7344c0.55859 0.54297 1.0234 1.1836 1.375 1.8906zm19.586-28.668c2.3398 0 4.4492 0.98828 5.9414 2.5703l-1.3516 1.1914c-1.1602-1.207-2.7891-1.9609-4.5938-1.9609-1.3594 0-2.6172 0.42969-3.6523 1.1562l-1.0938-1.4297c1.3398-0.96094 2.9805-1.5273 4.75-1.5273zm-8.1758 8.1758c0-2.5469 1.168-4.8242 3-6.3242l1.0938 1.4336c-1.4023 1.1719-2.293 2.9297-2.293 4.8945 0 1.5547 0.55859 2.9844 1.4922 4.0938l-1.3281 1.2148c-1.2266-1.4375-1.9648-3.2891-1.9648-5.3125zm8.1758 8.1758c-2.293 0-4.3633-0.94922-5.8516-2.4727l1.3281-1.2109c1.1562 1.1641 2.7578 1.8828 4.5195 1.8828 0.72266 0 1.418-0.12109 2.0703-0.34766l0.65625 1.6797c-0.85156 0.30469-1.7695 0.46875-2.7227 0.46875zm3.2266-0.66406-0.65625-1.6797c1.8516-0.81641 3.2383-2.4883 3.668-4.5156l1.7773 0.29687c-0.53516 2.6562-2.3594 4.8477-4.7891 5.8984zm4.875-6.4297-1.7734-0.29687c0.03125-0.25781 0.046876-0.51953 0.046876-0.78516 0-1.5195-0.53516-2.9141-1.4258-4.0117l1.3516-1.1914c1.1719 1.4141 1.875 3.2305 1.875 5.2031 0 0.36719-0.027344 0.72656-0.074219 1.082zm28.922 14.273c-5.0508 0-9.1602-4.1094-9.1602-9.1602 0-0.42188 0.03125-0.83594 0.089843-1.2422l1.6016 0.26953c-0.042969 0.32031-0.066406 0.64453-0.066406 0.97656 0 4.1562 3.3828 7.5391 7.5391 7.5391s7.5391-3.3828 7.5391-7.5391-3.3828-7.5391-7.5391-7.5391c-3.6406 0-6.6875 2.5938-7.3867 6.0312l-1.5977-0.26953c0.82812-4.2031 4.543-7.3828 8.9844-7.3828 5.0508 0 9.1602 4.1094 9.1602 9.1602-0.003907 5.0469-4.1133 9.1562-9.1641 9.1562z"/>
</svg>
