<?xml version="1.0" encoding="UTF-8"?>
<svg width="100pt" height="100pt" version="1.1" viewBox="0 0 100 100" xmlns="http://www.w3.org/2000/svg">
 <g>
  <path d="m21.785 74.402c-4.3633 0-7.7188-1.3359-9.9648-3.9727-2.2227-2.6094-3.3477-6.4336-3.3477-11.359 0-4.0039 0.77734-8.1836 2.3125-12.422 1.5391-4.2695 3.8789-7.8867 6.9492-10.754 3.1094-2.9023 6.9062-4.375 11.285-4.375 4.3633 0 7.7188 1.3477 9.9648 4.0039 2.2227 2.6289 3.3477 6.4609 3.3477 11.387 0 3.9883-0.77734 8.1562-2.3125 12.391-1.5391 4.2461-3.8789 7.8555-6.9492 10.727-3.1055 2.9062-6.9023 4.375-11.285 4.375zm7.2344-41.879c-4.1172 0-7.6875 1.3828-10.605 4.1055-2.9531 2.7578-5.2031 6.2461-6.6914 10.363-1.4961 4.1289-2.2539 8.1914-2.2539 12.082 0 4.6836 1.0469 8.2852 3.1094 10.711 2.0469 2.4023 5.1445 3.6211 9.2031 3.6211 4.1211 0 7.6875-1.3828 10.602-4.1055 2.9531-2.7617 5.207-6.2383 6.6914-10.336 1.4961-4.125 2.2539-8.1797 2.2539-12.051 0-4.6836-1.0469-8.2969-3.1133-10.738-2.0391-2.4258-5.1367-3.6523-9.1953-3.6523zm-6.7031 34.82c-3.3984 0-5.125-2.7617-5.125-8.2109 0-2.3281 0.43359-5.125 1.293-8.3164 0.85938-3.207 2.1328-6.0312 3.7812-8.4023 1.7148-2.4648 3.7891-3.7148 6.1641-3.7148 1.7227 0 3.043 0.75 3.9297 2.2305 0.83594 1.3984 1.2578 3.4102 1.2578 5.9805 0 2.3281-0.43359 5.125-1.293 8.3164-0.86719 3.2148-2.1406 6.0391-3.7812 8.4023-1.7109 2.4648-3.8086 3.7148-6.2266 3.7148zm0.76562-24.359c-1.5781 2.2734-2.8047 4.9961-3.6367 8.0898-0.83594 3.1055-1.2578 5.8164-1.2578 8.0586 0 4.8516 1.3516 7.2109 4.125 7.2109 2.1016 0 3.8711-1.0742 5.4062-3.2852 1.5742-2.2656 2.7969-4.9883 3.6367-8.0898 0.83594-3.1055 1.2578-5.8164 1.2578-8.0586 0-2.3867-0.375-4.2266-1.1172-5.4688-0.70312-1.1758-1.707-1.7461-3.0703-1.7461-2.0586 0.003907-3.8047 1.0781-5.3438 3.2891z"/>
  <path d="m51.262 48.305c-0.82812 0-1.582-0.45703-1.9609-1.1953-0.37891-0.73828-0.31641-1.6172 0.16406-2.293l3.5508-4.9766c0.035156-0.050782 0.023437-0.097656 0.011719-0.12891-0.015625-0.03125-0.046875-0.066407-0.10938-0.066407-0.78125 0-1.5078-0.35547-1.9922-0.96875-0.48438-0.61719-0.65234-1.4062-0.46484-2.1641l0.75-3.0391c0.47266-1.9141 2.1758-3.25 4.1484-3.25 1.3203 0 2.5469 0.59766 3.3633 1.6367 0.8125 1.0391 1.1016 2.3711 0.78516 3.6562-0.62891 2.5508-1.6953 4.9375-3.1797 7.1016l-3.2344 4.7305c-0.42188 0.59766-1.1055 0.95703-1.832 0.95703zm4.0898-17.086c-1.5117 0-2.8164 1.0234-3.1758 2.4883l-0.75 3.0391c-0.11328 0.46094-0.011719 0.9375 0.28125 1.3086 0.29297 0.37109 0.73047 0.58594 1.2031 0.58594 0.42188 0 0.80469 0.23438 1 0.60938 0.19531 0.375 0.16016 0.82422-0.085937 1.168l-3.5508 4.9766c-0.26953 0.375-0.30078 0.84375-0.089844 1.2539 0.21094 0.41016 0.61328 0.65234 1.0742 0.65234 0.39844 0 0.76953-0.19531 0.99609-0.52344l3.2344-4.7305c1.4141-2.0625 2.4336-4.3438 3.0352-6.7773 0.24219-0.98438 0.023437-2.0039-0.60156-2.8008-0.62109-0.79297-1.5586-1.25-2.5703-1.25z"/>
  <path d="m72.504 74.402c-4.3633 0-7.7188-1.3359-9.9648-3.9727-2.2227-2.6133-3.3477-6.4336-3.3477-11.359 0-4.0039 0.77734-8.1836 2.3125-12.422 1.5391-4.2695 3.8789-7.8867 6.9492-10.754 3.1094-2.9023 6.9062-4.375 11.285-4.375 4.3633 0 7.7188 1.3477 9.9648 4.0039 2.2227 2.6289 3.3477 6.4609 3.3477 11.387 0 3.9883-0.77734 8.1562-2.3125 12.391-1.5391 4.2461-3.8789 7.8555-6.9492 10.727-3.1055 2.9062-6.9023 4.375-11.285 4.375zm7.2383-41.879c-4.1172 0-7.6875 1.3828-10.605 4.1055-2.9531 2.7578-5.2031 6.2461-6.6914 10.363-1.4961 4.1289-2.2539 8.1914-2.2539 12.082 0 4.6797 1.0469 8.2852 3.1094 10.711 2.0469 2.4023 5.1445 3.6211 9.2031 3.6211 4.1211 0 7.6875-1.3828 10.602-4.1055 2.9531-2.7617 5.207-6.2383 6.6914-10.336 1.4961-4.125 2.2539-8.1797 2.2539-12.051 0-4.6836-1.0469-8.2969-3.1133-10.738-2.043-2.4258-5.1367-3.6523-9.1953-3.6523zm-6.707 34.82c-3.3984 0-5.125-2.7617-5.125-8.2109 0-2.3281 0.43359-5.125 1.293-8.3164 0.85938-3.207 2.1328-6.0312 3.7812-8.4023 1.7148-2.4648 3.7891-3.7148 6.1641-3.7148 1.7227 0 3.043 0.75 3.9297 2.2305 0.83594 1.3984 1.2578 3.4102 1.2578 5.9805 0 2.3281-0.43359 5.125-1.293 8.3164-0.86719 3.2188-2.1406 6.043-3.7812 8.4023-1.7109 2.4648-3.8047 3.7148-6.2266 3.7148zm0.76953-24.359c-1.5781 2.2734-2.8047 4.9961-3.6367 8.0898-0.83594 3.1055-1.2578 5.8164-1.2578 8.0586 0 4.8516 1.3516 7.2109 4.125 7.2109 2.1016 0 3.8711-1.0742 5.4062-3.2852 1.5742-2.2656 2.7969-4.9844 3.6367-8.0898 0.83594-3.1055 1.2578-5.8164 1.2578-8.0586 0-2.3867-0.375-4.2266-1.1172-5.4688-0.70312-1.1758-1.707-1.7461-3.0703-1.7461-2.0586 0.003907-3.8086 1.0781-5.3438 3.2891z"/>
  <path d="m34.098 61.938c0 0.36328-0.53906 0.36328-0.53906 0 0-0.35938 0.53906-0.35938 0.53906 0"/>
  <path d="m33.609 64.184c0 0.36328-0.54297 0.36328-0.54297 0 0-0.35938 0.54297-0.35938 0.54297 0"/>
  <path d="m33.512 63.504c0 0.35938-0.53906 0.35938-0.53906 0s0.53906-0.35938 0.53906 0"/>
  <path d="m35.062 63.855c0 0.35938-0.54297 0.35938-0.54297 0s0.54297-0.35938 0.54297 0"/>
  <path d="m34.32 63.016c0 0.36328-0.53906 0.36328-0.53906 0 0-0.35938 0.53906-0.35938 0.53906 0"/>
  <path d="m32.738 64.992c0 0.36328-0.53906 0.36328-0.53906 0 0-0.35938 0.53906-0.35938 0.53906 0"/>
  <path d="m35.609 64.922c0 0.35938-0.53906 0.35938-0.53906 0s0.53906-0.35938 0.53906 0"/>
  <path d="m34.598 64.758c0 0.35938-0.54297 0.35938-0.54297 0 0-0.35937 0.54297-0.35937 0.54297 0"/>
  <path d="m34.48 65.77c0 0.35938-0.54297 0.35938-0.54297 0s0.54297-0.35938 0.54297 0"/>
  <path d="m34.641 66.848c0 0.36328-0.54297 0.36328-0.54297 0 0-0.35938 0.54297-0.35938 0.54297 0"/>
  <path d="m32.492 66.465c0 0.35938-0.54297 0.35938-0.54297 0 0-0.36328 0.54297-0.36328 0.54297 0"/>
  <path d="m35.238 62.684c0 0.36328-0.53906 0.36328-0.53906 0 0-0.35938 0.53906-0.35938 0.53906 0"/>
  <path d="m34.996 61.5c0 0.35938-0.53906 0.35938-0.53906 0s0.53906-0.35938 0.53906 0"/>
  <path d="m35.953 63.555c0 0.35937-0.53906 0.35937-0.53906 0 0-0.35938 0.53906-0.35938 0.53906 0"/>
  <path d="m37.395 62.004c0 0.35938-0.53906 0.35938-0.53906 0s0.53906-0.35938 0.53906 0"/>
  <path d="m35.586 60.887c0 0.35938-0.53906 0.35938-0.53906 0s0.53906-0.35938 0.53906 0"/>
  <path d="m35.559 58.59c0 0.35938-0.53906 0.35938-0.53906 0s0.53906-0.35938 0.53906 0"/>
  <path d="m35.809 59.23c0 0.36328-0.54297 0.36328-0.54297 0 0-0.35938 0.54297-0.35938 0.54297 0"/>
  <path d="m34.219 59.234c0 0.35938-0.53906 0.35938-0.53906 0s0.53906-0.35938 0.53906 0"/>
  <path d="m35.125 59.887c0 0.35938-0.53906 0.35938-0.53906 0s0.53906-0.35938 0.53906 0"/>
  <path d="m34.633 58.559c0 0.36328-0.53906 0.36328-0.53906 0 0-0.35938 0.53906-0.35938 0.53906 0"/>
  <path d="m36.254 57.641c0 0.35938-0.53906 0.35938-0.53906 0s0.53906-0.35938 0.53906 0"/>
  <path d="m36.371 55.473c0 0.35938-0.53906 0.35938-0.53906 0s0.53906-0.35938 0.53906 0"/>
  <path d="m34.305 60.414c0 0.35938-0.53906 0.35938-0.53906 0 0-0.35937 0.53906-0.35937 0.53906 0"/>
  <path d="m40.055 55.566c0 0.35938-0.54297 0.35938-0.54297 0 0-0.36328 0.54297-0.36328 0.54297 0"/>
  <path d="m33.414 59.727c0 0.35938-0.54297 0.35938-0.54297 0 0-0.35937 0.54297-0.35937 0.54297 0"/>
  <path d="m39.621 56.73c0 0.36328-0.54297 0.36328-0.54297 0 0-0.35938 0.54297-0.35938 0.54297 0"/>
  <path d="m39.062 57.09c0 0.35938-0.53906 0.35938-0.53906 0s0.53906-0.35938 0.53906 0"/>
  <path d="m38.371 59.055c0 0.35937-0.53906 0.35937-0.53906 0 0-0.35938 0.53906-0.35938 0.53906 0"/>
  <path d="m38.031 57.574c0 0.35938-0.54297 0.35938-0.54297 0s0.54297-0.35938 0.54297 0"/>
  <path d="m38.961 58.184c0 0.35938-0.53906 0.35938-0.53906 0s0.53906-0.35938 0.53906 0"/>
  <path d="m37.16 58.785c0 0.35938-0.53906 0.35938-0.53906 0s0.53906-0.35938 0.53906 0"/>
  <path d="m38.711 56.023c0 0.35937-0.53906 0.35937-0.53906 0 0-0.35938 0.53906-0.35938 0.53906 0"/>
  <path d="m37.203 57.992c0 0.35937-0.53906 0.35937-0.53906 0 0-0.35938 0.53906-0.35938 0.53906 0"/>
  <path d="m37.93 56.871c0 0.36328-0.53906 0.36328-0.53906 0 0-0.35938 0.53906-0.35938 0.53906 0"/>
  <path d="m36.324 56.965c0 0.35938-0.53906 0.35938-0.53906 0s0.53906-0.35938 0.53906 0"/>
  <path d="m37.176 56.34c0 0.35938-0.53906 0.35938-0.53906 0s0.53906-0.35938 0.53906 0"/>
  <path d="m37.805 59.777c0 0.36328-0.53906 0.36328-0.53906 0 0-0.35938 0.53906-0.35938 0.53906 0"/>
  <path d="m36.691 59.602c0 0.35938-0.53906 0.35938-0.53906 0 0-0.35937 0.53906-0.35937 0.53906 0"/>
  <path d="m37.586 60.934c0 0.35938-0.53906 0.35938-0.53906 0s0.53906-0.35938 0.53906 0"/>
  <path d="m36.113 61.531c0 0.36328-0.53906 0.36328-0.53906 0 0-0.35938 0.53906-0.35938 0.53906 0"/>
  <path d="m28.613 70.258c0 0.30078-0.44922 0.30078-0.44922 0 0-0.29687 0.44922-0.29687 0.44922 0"/>
  <path d="m40.324 52.051c0 0.35938-0.54297 0.35938-0.54297 0s0.54297-0.35938 0.54297 0"/>
  <path d="m28.957 66.164c0 0.36328-0.53906 0.36328-0.53906 0 0-0.35937 0.53906-0.35937 0.53906 0"/>
  <path d="m33.781 58.176c0 0.35938-0.53906 0.35938-0.53906 0 0-0.36328 0.53906-0.36328 0.53906 0"/>
  <path d="m39.621 47.078c0 0.35938-0.54297 0.35938-0.54297 0s0.54297-0.35938 0.54297 0"/>
  <path d="m38.602 45.988c0 0.35938-0.53906 0.35938-0.53906 0s0.53906-0.35938 0.53906 0"/>
  <path d="m33.461 66.73c0 0.35938-0.54297 0.35938-0.54297 0 0-0.36328 0.54297-0.36328 0.54297 0"/>
  <path d="m30.086 70.242c0 0.35937-0.53906 0.35937-0.53906 0 0-0.35938 0.53906-0.35938 0.53906 0"/>
  <path d="m30.508 64.68c0 0.35937-0.53906 0.35937-0.53906 0 0-0.35938 0.53906-0.35938 0.53906 0"/>
  <path d="m26.566 70.367c0 0.35937-0.54297 0.35937-0.54297 0 0-0.35938 0.54297-0.35938 0.54297 0"/>
  <path d="m18.758 70.367c0 0.35937-0.53906 0.35937-0.53906 0 0-0.35938 0.53906-0.35938 0.53906 0"/>
  <path d="m33.469 68.355c0 0.35938-0.54297 0.35938-0.54297 0s0.54297-0.35938 0.54297 0"/>
  <path d="m39.52 49.906c0 0.35938-0.53906 0.35938-0.53906 0s0.53906-0.35938 0.53906 0"/>
  <path d="m29.816 68.191c0 0.36328-0.53906 0.36328-0.53906 0 0-0.35938 0.53906-0.35938 0.53906 0"/>
  <path d="m32.309 61.809c0 0.35938-0.54297 0.35938-0.54297 0 0-0.36328 0.54297-0.36328 0.54297 0"/>
  <path d="m34.887 57.473c0 0.36328-0.53906 0.36328-0.53906 0 0-0.35938 0.53906-0.35938 0.53906 0"/>
  <path d="m38.602 52.926c0 0.35938-0.53906 0.35938-0.53906 0s0.53906-0.35938 0.53906 0"/>
  <path d="m39.25 53.156c0 0.36328-0.53906 0.36328-0.53906 0 0-0.35938 0.53906-0.35938 0.53906 0"/>
  <path d="m38.215 54.363c0 0.36328-0.53906 0.36328-0.53906 0 0-0.35938 0.53906-0.35938 0.53906 0"/>
  <path d="m39.301 54.102c0 0.35938-0.53906 0.35938-0.53906 0 0-0.35937 0.53906-0.35937 0.53906 0"/>
  <path d="m40.594 49.637c0 0.35938-0.53906 0.35938-0.53906 0s0.53906-0.35938 0.53906 0"/>
  <path d="m38.023 52.047c0.14844 0.023437 0.28516-0.074219 0.30859-0.22266 0.023438-0.14844-0.074219-0.28516-0.22266-0.30859s-0.28516 0.074219-0.30859 0.22266c-0.023437 0.14844 0.074219 0.28516 0.22266 0.30859z"/>
  <path d="m38.484 49.906c0 0.35938-0.53906 0.35938-0.53906 0s0.53906-0.35938 0.53906 0"/>
  <path d="m38.062 55.297c0 0.35938-0.53906 0.35938-0.53906 0 0-0.36328 0.53906-0.36328 0.53906 0"/>
  <path d="m37.055 54.266c0 0.35938-0.53906 0.35938-0.53906 0s0.53906-0.35938 0.53906 0"/>
  <path d="m37.316 52.707c0 0.35938-0.53906 0.35938-0.53906 0s0.53906-0.35938 0.53906 0"/>
  <path d="m31.074 67.379c0 0.35938-0.53906 0.35938-0.53906 0 0-0.36328 0.53906-0.36328 0.53906 0"/>
  <path d="m32.242 67.953c0 0.35938-0.53906 0.35938-0.53906 0s0.53906-0.35938 0.53906 0"/>
  <path d="m40.594 42.914c0 0.35938-0.53906 0.35938-0.53906 0 0-0.35937 0.53906-0.35937 0.53906 0"/>
  <path d="m32.008 63.461c0 0.35937-0.54297 0.35937-0.54297 0 0-0.36328 0.54297-0.36328 0.54297 0"/>
  <path d="m31.141 69.117c0 0.29687-0.44922 0.29687-0.44922 0 0-0.30078 0.44922-0.30078 0.44922 0"/>
  <path d="m22.02 71.07c0 0.35938-0.53906 0.35938-0.53906 0 0-0.35937 0.53906-0.35937 0.53906 0"/>
  <path d="m23.969 70.242c0 0.35937-0.54297 0.35937-0.54297 0 0-0.35938 0.54297-0.35938 0.54297 0"/>
  <path d="m24.145 71.34c0 0.35938-0.54297 0.35938-0.54297 0s0.54297-0.35938 0.54297 0"/>
  <path d="m27.117 71.195c0 0.30078-0.44922 0.30078-0.44922 0 0-0.30078 0.44922-0.30078 0.44922 0"/>
  <path d="m30.961 66.191c0 0.35938-0.53906 0.35938-0.53906 0s0.53906-0.35938 0.53906 0"/>
  <path d="m28.414 69.117c0 0.35937-0.53906 0.35937-0.53906 0 0-0.35938 0.53906-0.35938 0.53906 0"/>
  <path d="m21.75 72.668c0 0.35938-0.53906 0.35938-0.53906 0s0.53906-0.35938 0.53906 0"/>
  <path d="m25.285 71.781c0 0.36328-0.53906 0.36328-0.53906 0 0-0.35938 0.53906-0.35938 0.53906 0"/>
  <path d="m33.137 61.801c0 0.35938-0.53906 0.35938-0.53906 0s0.53906-0.35938 0.53906 0"/>
  <path d="m84.289 61.938c0 0.36328-0.53906 0.36328-0.53906 0 0-0.35938 0.53906-0.35938 0.53906 0"/>
  <path d="m83.801 64.184c0 0.36328-0.53906 0.36328-0.53906 0 0-0.35938 0.53906-0.35938 0.53906 0"/>
  <path d="m83.703 63.504c0 0.35938-0.53906 0.35938-0.53906 0s0.53906-0.35938 0.53906 0"/>
  <path d="m85.258 63.855c0 0.35938-0.54297 0.35938-0.54297 0s0.54297-0.35938 0.54297 0"/>
  <path d="m84.516 63.016c0 0.36328-0.53906 0.36328-0.53906 0 0-0.35938 0.53906-0.35938 0.53906 0"/>
  <path d="m82.934 64.992c0 0.36328-0.53906 0.36328-0.53906 0 0-0.35938 0.53906-0.35938 0.53906 0"/>
  <path d="m85.805 64.922c0 0.35938-0.53906 0.35938-0.53906 0s0.53906-0.35938 0.53906 0"/>
  <path d="m84.789 64.758c0 0.35938-0.53906 0.35938-0.53906 0 0-0.35937 0.53906-0.35937 0.53906 0"/>
  <path d="m84.676 65.77c0 0.35938-0.54297 0.35938-0.54297 0s0.54297-0.35938 0.54297 0"/>
  <path d="m84.832 66.848c0 0.36328-0.53906 0.36328-0.53906 0 0-0.35938 0.53906-0.35938 0.53906 0"/>
  <path d="m82.684 66.465c0 0.35938-0.53906 0.35938-0.53906 0 0-0.36328 0.53906-0.36328 0.53906 0"/>
  <path d="m85.434 62.684c0 0.36328-0.53906 0.36328-0.53906 0 0-0.35938 0.53906-0.35938 0.53906 0"/>
  <path d="m85.191 61.5c0 0.35938-0.54297 0.35938-0.54297 0s0.54297-0.35938 0.54297 0"/>
  <path d="m86.148 63.555c0 0.35937-0.53906 0.35937-0.53906 0 0-0.35938 0.53906-0.35938 0.53906 0"/>
  <path d="m87.59 62.004c0 0.35938-0.53906 0.35938-0.53906 0s0.53906-0.35938 0.53906 0"/>
  <path d="m85.781 60.887c0 0.35938-0.54297 0.35938-0.54297 0s0.54297-0.35938 0.54297 0"/>
  <path d="m85.754 58.59c0 0.35938-0.53906 0.35938-0.53906 0s0.53906-0.35938 0.53906 0"/>
  <path d="m86.004 59.23c0 0.36328-0.54297 0.36328-0.54297 0 0-0.35938 0.54297-0.35938 0.54297 0"/>
  <path d="m84.41 59.234c0 0.35938-0.53906 0.35938-0.53906 0s0.53906-0.35938 0.53906 0"/>
  <path d="m85.32 59.887c0 0.35938-0.53906 0.35938-0.53906 0s0.53906-0.35938 0.53906 0"/>
  <path d="m84.828 58.559c0 0.36328-0.53906 0.36328-0.53906 0 0-0.35938 0.53906-0.35938 0.53906 0"/>
  <path d="m86.449 57.641c0 0.35938-0.53906 0.35938-0.53906 0s0.53906-0.35938 0.53906 0"/>
  <path d="m86.566 55.473c0 0.35938-0.54297 0.35938-0.54297 0s0.54297-0.35938 0.54297 0"/>
  <path d="m84.5 60.414c0 0.35938-0.53906 0.35938-0.53906 0 0-0.35937 0.53906-0.35937 0.53906 0"/>
  <path d="m90.246 55.566c0 0.35938-0.53906 0.35938-0.53906 0 0-0.36328 0.53906-0.36328 0.53906 0"/>
  <path d="m83.609 59.727c0 0.35938-0.54297 0.35938-0.54297 0 0-0.35937 0.54297-0.35937 0.54297 0"/>
  <path d="m89.812 56.73c0 0.36328-0.53906 0.36328-0.53906 0 0-0.35938 0.53906-0.35938 0.53906 0"/>
  <path d="m89.258 57.09c0 0.35938-0.53906 0.35938-0.53906 0s0.53906-0.35938 0.53906 0"/>
  <path d="m88.566 59.055c0 0.35937-0.54297 0.35937-0.54297 0 0-0.35938 0.54297-0.35938 0.54297 0"/>
  <path d="m88.223 57.574c0 0.35938-0.53906 0.35938-0.53906 0s0.53906-0.35938 0.53906 0"/>
  <path d="m89.156 58.184c0 0.35938-0.53906 0.35938-0.53906 0s0.53906-0.35938 0.53906 0"/>
  <path d="m87.355 58.785c0 0.35938-0.53906 0.35938-0.53906 0s0.53906-0.35938 0.53906 0"/>
  <path d="m88.906 56.023c0 0.35937-0.53906 0.35937-0.53906 0 0-0.35938 0.53906-0.35938 0.53906 0"/>
  <path d="m87.398 57.992c0 0.35937-0.54297 0.35937-0.54297 0 0-0.35938 0.54297-0.35938 0.54297 0"/>
  <path d="m88.121 56.871c0 0.36328-0.53906 0.36328-0.53906 0 0-0.35938 0.53906-0.35938 0.53906 0"/>
  <path d="m86.52 56.965c0 0.35938-0.53906 0.35938-0.53906 0s0.53906-0.35938 0.53906 0"/>
  <path d="m87.367 56.34c0 0.35938-0.53906 0.35938-0.53906 0s0.53906-0.35938 0.53906 0"/>
  <path d="m87.996 59.777c0 0.36328-0.53906 0.36328-0.53906 0 0-0.35938 0.53906-0.35938 0.53906 0"/>
  <path d="m86.887 59.602c0 0.35938-0.53906 0.35938-0.53906 0 0-0.35937 0.53906-0.35937 0.53906 0"/>
  <path d="m87.781 60.934c0 0.35938-0.54297 0.35938-0.54297 0s0.54297-0.35938 0.54297 0"/>
  <path d="m86.309 61.531c0 0.36328-0.53906 0.36328-0.53906 0 0-0.35938 0.53906-0.35938 0.53906 0"/>
  <path d="m78.809 70.258c0 0.30078-0.44922 0.30078-0.44922 0 0-0.29687 0.44922-0.29687 0.44922 0"/>
  <path d="m90.52 52.051c0 0.35938-0.54297 0.35938-0.54297 0s0.54297-0.35938 0.54297 0"/>
  <path d="m79.152 66.164c0 0.36328-0.53906 0.36328-0.53906 0 0-0.35937 0.53906-0.35937 0.53906 0"/>
  <path d="m83.977 58.176c0 0.35938-0.53906 0.35938-0.53906 0 0-0.36328 0.53906-0.36328 0.53906 0"/>
  <path d="m89.812 47.078c0 0.35938-0.53906 0.35938-0.53906 0s0.53906-0.35938 0.53906 0"/>
  <path d="m88.797 45.988c0 0.35938-0.53906 0.35938-0.53906 0s0.53906-0.35938 0.53906 0"/>
  <path d="m83.652 66.73c0 0.35938-0.53906 0.35938-0.53906 0 0-0.36328 0.53906-0.36328 0.53906 0"/>
  <path d="m80.281 70.242c0 0.35937-0.53906 0.35937-0.53906 0 0-0.35938 0.53906-0.35938 0.53906 0"/>
  <path d="m80.703 64.68c0 0.35937-0.54297 0.35937-0.54297 0 0-0.35938 0.54297-0.35938 0.54297 0"/>
  <path d="m76.758 70.367c0 0.35937-0.53906 0.35937-0.53906 0 0-0.35938 0.53906-0.35938 0.53906 0"/>
  <path d="m68.949 70.367c0 0.35937-0.53906 0.35937-0.53906 0 0-0.35938 0.53906-0.35938 0.53906 0"/>
  <path d="m83.66 68.355c0 0.35938-0.53906 0.35938-0.53906 0s0.53906-0.35938 0.53906 0"/>
  <path d="m89.715 49.906c0 0.35938-0.53906 0.35938-0.53906 0s0.53906-0.35938 0.53906 0"/>
  <path d="m80.012 68.191c0 0.36328-0.53906 0.36328-0.53906 0 0-0.35938 0.53906-0.35938 0.53906 0"/>
  <path d="m82.5 61.809c0 0.35938-0.53906 0.35938-0.53906 0 0-0.36328 0.53906-0.36328 0.53906 0"/>
  <path d="m85.082 57.473c0 0.36328-0.53906 0.36328-0.53906 0 0-0.35938 0.53906-0.35938 0.53906 0"/>
  <path d="m88.797 52.926c0 0.35938-0.53906 0.35938-0.53906 0s0.53906-0.35938 0.53906 0"/>
  <path d="m89.445 53.156c0 0.36328-0.54297 0.36328-0.54297 0 0-0.35938 0.54297-0.35938 0.54297 0"/>
  <path d="m88.41 54.363c0 0.36328-0.54297 0.36328-0.54297 0 0-0.35938 0.54297-0.35938 0.54297 0"/>
  <path d="m89.496 54.102c0 0.35938-0.53906 0.35938-0.53906 0 0-0.35937 0.53906-0.35937 0.53906 0"/>
  <path d="m90.789 49.637c0 0.35938-0.54297 0.35938-0.54297 0s0.54297-0.35938 0.54297 0"/>
  <path d="m88.219 52.047c0.14844 0.023437 0.28516-0.074219 0.30859-0.22266 0.023437-0.14844-0.074219-0.28516-0.22266-0.30859-0.14844-0.023437-0.28516 0.074219-0.30859 0.22266-0.027344 0.14844 0.074218 0.28516 0.22266 0.30859z"/>
  <path d="m88.68 49.906c0 0.35938-0.53906 0.35938-0.53906 0s0.53906-0.35938 0.53906 0"/>
  <path d="m88.258 55.297c0 0.35938-0.54297 0.35938-0.54297 0 0-0.36328 0.54297-0.36328 0.54297 0"/>
  <path d="m87.25 54.266c0 0.35938-0.53906 0.35938-0.53906 0s0.53906-0.35938 0.53906 0"/>
  <path d="m87.512 52.707c0 0.35938-0.53906 0.35938-0.53906 0s0.53906-0.35938 0.53906 0"/>
  <path d="m81.27 67.379c0 0.35938-0.53906 0.35938-0.53906 0 0-0.36328 0.53906-0.36328 0.53906 0"/>
  <path d="m82.438 67.953c0 0.35938-0.53906 0.35938-0.53906 0s0.53906-0.35938 0.53906 0"/>
  <path d="m90.789 42.914c0 0.35938-0.54297 0.35938-0.54297 0 0-0.35937 0.54297-0.35937 0.54297 0"/>
  <path d="m82.199 63.461c0 0.35937-0.53906 0.35937-0.53906 0 0-0.36328 0.53906-0.36328 0.53906 0"/>
  <path d="m81.336 69.117c0 0.29687-0.44922 0.29687-0.44922 0 0-0.30078 0.44922-0.30078 0.44922 0"/>
  <path d="m72.215 71.07c0 0.35938-0.53906 0.35938-0.53906 0 0-0.35937 0.53906-0.35937 0.53906 0"/>
  <path d="m74.16 70.242c0 0.35937-0.53906 0.35937-0.53906 0 0-0.35938 0.53906-0.35938 0.53906 0"/>
  <path d="m74.34 71.34c0 0.35938-0.54297 0.35938-0.54297 0s0.54297-0.35938 0.54297 0"/>
  <path d="m77.312 71.195c0 0.30078-0.44922 0.30078-0.44922 0 0-0.30078 0.44922-0.30078 0.44922 0"/>
  <path d="m81.156 66.191c0 0.35938-0.54297 0.35938-0.54297 0s0.54297-0.35938 0.54297 0"/>
  <path d="m78.609 69.117c0 0.35937-0.53906 0.35937-0.53906 0 0-0.35938 0.53906-0.35938 0.53906 0"/>
  <path d="m71.945 72.668c0 0.35938-0.54297 0.35938-0.54297 0s0.54297-0.35938 0.54297 0"/>
  <path d="m75.48 71.781c0 0.36328-0.53906 0.36328-0.53906 0 0-0.35938 0.53906-0.35938 0.53906 0"/>
  <path d="m83.332 61.801c0 0.35938-0.53906 0.35938-0.53906 0s0.53906-0.35938 0.53906 0"/>
  <path d="m59.363 34c0 0.35938-0.53906 0.35938-0.53906 0s0.53906-0.35938 0.53906 0"/>
  <path d="m59.445 33.316c0 0.35938-0.53906 0.35938-0.53906 0s0.53906-0.35938 0.53906 0"/>
  <path d="m58.316 34.559c0 0.35938-0.54297 0.35938-0.54297 0s0.54297-0.35938 0.54297 0"/>
  <path d="m56.074 40.051c0 0.35938-0.53906 0.35938-0.53906 0s0.53906-0.35938 0.53906 0"/>
  <path d="m57.699 35.914c0 0.35938-0.54297 0.35938-0.54297 0 0-0.35937 0.54297-0.35937 0.54297 0"/>
  <path d="m57.324 39.781c0 0.35938-0.53906 0.35938-0.53906 0s0.53906-0.35938 0.53906 0"/>
  <path d="m54.359 34.719c0 0.35938-0.53906 0.35938-0.53906 0s0.53906-0.35938 0.53906 0"/>
  <path d="m58.566 36.422c0 0.35938-0.54297 0.35938-0.54297 0 0-0.36328 0.54297-0.36328 0.54297 0"/>
  <path d="m53.578 38.105c0 0.36328-0.54297 0.36328-0.54297 0 0-0.35938 0.54297-0.35938 0.54297 0"/>
  <path d="m56.238 33.68c0 0.35937-0.53906 0.35937-0.53906 0 0-0.35938 0.53906-0.35938 0.53906 0"/>
  <path d="m54.348 39.535c0 0.35938-0.53906 0.35938-0.53906 0s0.53906-0.35938 0.53906 0"/>
  <path d="m53.949 42.891c0 0.35938-0.53906 0.35938-0.53906 0s0.53906-0.35938 0.53906 0"/>
  <path d="m58.688 38.203c0 0.36328-0.54297 0.36328-0.54297 0 0-0.35938 0.54297-0.35938 0.54297 0"/>
  <path d="m53.816 44.277c0 0.36328-0.53906 0.36328-0.53906 0 0-0.35938 0.53906-0.35938 0.53906 0"/>
  <path d="m56.094 36.434c0 0.35938-0.53906 0.35938-0.53906 0s0.53906-0.35938 0.53906 0"/>
  <path d="m57.074 37.289c0 0.35938-0.53906 0.35938-0.53906 0 0-0.35937 0.53906-0.35937 0.53906 0"/>
  <path d="m58 32.887c0 0.35938-0.53906 0.35938-0.53906 0s0.53906-0.35938 0.53906 0"/>
  <path d="m56.578 38.77c0 0.35938-0.53906 0.35938-0.53906 0s0.53906-0.35938 0.53906 0"/>
  <path d="m54.848 42.527c0 0.35938-0.53906 0.35938-0.53906 0s0.53906-0.35938 0.53906 0"/>
  <path d="m53.594 42.039c0 0.35938-0.53906 0.35938-0.53906 0 0-0.35937 0.53906-0.35937 0.53906 0"/>
  <path d="m55.805 41.266c0 0.35938-0.53906 0.35938-0.53906 0 0-0.36328 0.53906-0.36328 0.53906 0"/>
  <path d="m52.758 44.859c0 0.35938-0.54297 0.35938-0.54297 0s0.54297-0.35938 0.54297 0"/>
  <path d="m51.727 44.844c0 0.35938-0.53906 0.35938-0.53906 0s0.53906-0.35938 0.53906 0"/>
  <path d="m52.453 43.809c0 0.35938-0.53906 0.35938-0.53906 0s0.53906-0.35938 0.53906 0"/>
  <path d="m52.07 46.961c0 0.35937-0.54297 0.35937-0.54297 0 0-0.35938 0.54297-0.35938 0.54297 0"/>
  <path d="m51.434 45.941c0 0.36328-0.53906 0.36328-0.53906 0 0-0.35938 0.53906-0.35938 0.53906 0"/>
 </g>
</svg>
