<svg width="163" height="40" fill="none" xmlns="http://www.w3.org/2000/svg"><mask id="prefix__a" style="mask-type:luminance" maskUnits="userSpaceOnUse" x="0" y="2" width="53" height="36"><path d="M52.503 2.501H.003v35h52.5v-35z" fill="#fff"/></mask><g mask="url(#prefix__a)"><path d="M17.503 2.501c-9.665 0-17.5 7.835-17.5 17.5s7.835 17.5 17.5 17.5 17.5-7.835 17.5-17.5-7.835-17.5-17.5-17.5z" fill="#327EFF"/><path d="M35.003 2.501c-9.665 0-17.5 7.835-17.5 17.5s7.835 17.5 17.5 17.5 17.5-7.834 17.5-17.5c0-9.665-7.835-17.5-17.5-17.5z" fill="#FFDE2D"/><path d="M17.503 20.002c0-9.665 7.835-17.5 17.5-17.5v17.5h-17.5z" fill="#FF6446"/><path d="M35.003 20.001c0 9.665-7.835 17.5-17.5 17.5v-17.5h17.5z" fill="#FF6446"/></g><path d="M68.543 30.45c-6.03 0-10.32-4.65-10.32-11.1 0-6.36 3.96-11.22 10.29-11.22 5.28 0 8.4 3.15 8.85 7.23h-4.32c-.39-2.16-2.01-3.57-4.53-3.57-3.96 0-5.85 3.3-5.85 7.56 0 4.38 2.28 7.53 5.88 7.53 2.55 0 4.35-1.53 4.62-3.78h4.26a7.596 7.596 0 01-2.37 5.07c-1.47 1.38-3.54 2.28-6.51 2.28zM83.41 8.55v8.07h.09c1.11-1.62 2.37-2.43 4.47-2.43 3.18 0 5.31 2.4 5.31 5.76V30H89.2v-9.45c0-1.65-.96-2.82-2.67-2.82-1.8 0-3.12 1.44-3.12 3.54V30h-4.08V8.55h4.08zm16.315 6.06v2.46h.09c.93-1.74 1.98-2.64 3.78-2.64.45 0 .72.03.96.12v3.57h-.09c-2.67-.27-4.59 1.14-4.59 4.38V30h-4.08V14.61h3.93zm13.438 15.84c-4.77 0-8.04-3.54-8.04-8.13 0-4.59 3.27-8.13 8.04-8.13s8.04 3.54 8.04 8.13c0 4.59-3.27 8.13-8.04 8.13zm0-3.12c2.49 0 3.9-2.01 3.9-5.01s-1.41-5.04-3.9-5.04c-2.52 0-3.9 2.04-3.9 5.04s1.38 5.01 3.9 5.01zM123.1 30V14.61h3.93v2.07h.09c.84-1.41 2.34-2.49 4.47-2.49 1.95 0 3.51 1.08 4.26 2.7h.06c1.05-1.68 2.67-2.7 4.62-2.7 3.24 0 5.07 2.1 5.07 5.46V30h-4.08v-9.66c0-1.74-.87-2.64-2.37-2.64-1.71 0-2.76 1.32-2.76 3.36V30h-4.08v-9.66c0-1.74-.87-2.64-2.37-2.64-1.65 0-2.76 1.32-2.76 3.36V30h-4.08zm34.71 0c-.24-.3-.39-1.02-.48-1.71h-.06c-.78 1.17-1.89 2.07-4.53 2.07-3.15 0-5.37-1.65-5.37-4.71 0-3.39 2.76-4.47 6.18-4.95 2.55-.36 3.72-.57 3.72-1.74 0-1.11-.87-1.83-2.58-1.83-1.92 0-2.85.69-2.97 2.16h-3.63c.12-2.7 2.13-5.07 6.629-5.07 4.621 0 6.481 2.07 6.481 5.67v7.83c0 1.17.18 1.86.54 2.13V30h-3.93zm-4.08-2.49c2.34 0 3.63-1.44 3.63-2.94v-2.31c-.72.42-1.83.66-2.851.9-2.129.48-3.179.96-3.179 2.4s.96 1.95 2.4 1.95z" fill="#000"/></svg>
