<svg width="40" height="26" viewBox="0 0 40 26" fill="none" xmlns="http://www.w3.org/2000/svg">
<path d="M13.4204 13.0798C13.4204 6.47033 18.9072 1.1123 25.8407 1.1123C32.7743 1.1123 38.3951 6.33264 38.3951 12.9421C38.3951 19.5515 32.7743 24.9096 25.8408 24.9096C23.4908 24.9096 21.2917 24.2941 19.411 23.223" stroke="currentColor" stroke-width="2"/>
<path d="M25.9747 13.0563C25.9747 19.6658 20.3539 24.9104 13.4203 24.9104C6.48674 24.9104 1 19.6658 1 13.0563C1 6.44689 6.62078 1.08887 13.5544 1.08887C15.8755 1.08887 18.0495 1.68933 19.9148 2.73619" stroke="currentColor" stroke-width="2"/>
<path d="M25.9748 13.0807C25.9748 19.6901 20.354 24.8837 13.4204 24.8837V13.5901C13.4204 6.98064 18.8999 1.24512 25.8335 1.24512L25.9748 13.0807Z" stroke="currentColor" stroke-width="2"/>
</svg>
