<svg width="150" height="150" viewBox="0 22 150 106" fill="none" shape-rendering="geometricPrecision" xmlns="http://www.w3.org/2000/svg">
<path fill-rule="evenodd" clip-rule="evenodd" d="M98.0787 34.1014C73.9878 34.1014 55.175 52.6643 55.175 75.3038H47.6616C47.6616 48.2828 70.0742 26.5879 98.0787 26.5879C125.972 26.5879 149 47.6589 149 74.7865C149 101.859 126.03 123.503 98.079 123.503C88.5891 123.503 79.688 121.016 72.0647 116.675L75.7826 110.145C82.29 113.851 89.9122 115.989 98.079 115.989C122.224 115.989 141.486 97.3748 141.486 74.7865C141.486 52.2536 122.282 34.1014 98.0787 34.1014Z" fill="none" stroke="currentColor" stroke-width="6" stroke-linejoin="round"/>
<path fill-rule="evenodd" clip-rule="evenodd" d="M51.9208 34.0136C27.7761 34.0136 8.51358 52.628 8.51358 75.2161C8.51358 97.8097 27.2786 115.992 51.417 115.992C75.6097 115.992 94.8244 97.7584 94.8244 75.2161H102.338C102.338 102.334 79.3207 123.506 51.417 123.506C23.4599 123.506 1 102.283 1 75.2161C1 48.1434 23.9695 26.5 51.9208 26.5C61.2942 26.5 70.0935 28.9259 77.6543 33.1693L73.9768 39.7215C67.5228 36.0992 59.9874 34.0136 51.9208 34.0136Z" fill="none" stroke="currentColor" stroke-width="6" stroke-linejoin="round"/>
<path fill-rule="evenodd" clip-rule="evenodd" d="M94.3415 34.7596C72.1871 36.6803 55.175 55.6187 55.175 77.2202V115.744C77.5806 113.989 94.8138 96.6623 94.8257 75.328L94.3415 34.7596ZM47.6616 77.2202C47.6616 50.3521 69.8921 27.0859 98.0518 27.0859H101.764L102.339 75.3064C102.339 102.445 79.3 123.404 51.4183 123.404H47.6616V77.2202Z" fill="none" stroke="currentColor" stroke-width="6" stroke-linejoin="round"/>
</svg>
