<svg xmlns="http://www.w3.org/2000/svg" fill="none" viewBox="0 0 24 24" id="Chroma--Streamline-Svg-Logos" height="24" width="24">
  <desc>
    Chroma Streamline Icon: https://streamlinehq.com
  </desc>
  <path fill="#ffde2d" d="M15.916575 19.52c4.326225 0 7.833325 -3.3668 7.833325 -7.519975 0 -4.153175 -3.5071 -7.519975 -7.833325 -7.519975 -4.326225 0 -7.833325 3.3668 -7.833325 7.519975 0 4.153175 3.5071 7.519975 7.833325 7.519975Z" stroke-width="0.25"></path>
  <path fill="#327eff" d="M8.083325 19.52c4.326225 0 7.833325 -3.3668 7.833325 -7.519975 0 -4.153175 -3.5071 -7.519975 -7.833325 -7.519975C3.7571 4.48005 0.25 7.84685 0.25 12.000025 0.25 16.1532 3.7571 19.52 8.083325 19.52Z" stroke-width="0.25"></path>
  <path fill="#ff6446" d="M15.916625 12.000025c0 4.1532 -3.507125 7.519925 -7.833375 7.519925V12.000025h7.833375Zm-7.833375 0c0 -4.153175 3.5071 -7.519975 7.833375 -7.519975v7.519975H8.08325Z" stroke-width="0.25"></path>
</svg>