<svg width="12" height="3" viewBox="0 0 12 3" fill="none" xmlns="http://www.w3.org/2000/svg">
<mask id="mask0_1_21" style="mask-type:luminance" maskUnits="userSpaceOnUse" x="0" y="0" width="4" height="3">
<path d="M3.93893 0H0V2.56489H3.93893V0Z" fill="white"/>
</mask>
<g mask="url(#mask0_1_21)">
<path fill-rule="evenodd" clip-rule="evenodd" d="M2.54917 0.199602C1.91659 0.199602 1.42257 0.687067 1.42257 1.28155H1.22528C1.22528 0.571991 1.81383 0.00231171 2.54917 0.00231171C3.28163 0.00231171 3.88633 0.555617 3.88633 1.26797C3.88633 1.97885 3.28317 2.5472 2.5492 2.5472C2.29999 2.5472 2.06627 2.48189 1.86607 2.36789L1.96372 2.19646C2.13458 2.29376 2.33473 2.34989 2.5492 2.34989C3.1832 2.34989 3.68901 1.8611 3.68901 1.26797C3.68901 0.676281 3.18474 0.199602 2.54917 0.199602Z" fill="white"/>
<path fill-rule="evenodd" clip-rule="evenodd" d="M1.33713 0.19729C0.703122 0.19729 0.19729 0.686107 0.19729 1.27924C0.19729 1.87253 0.690046 2.34998 1.32389 2.34998C1.95916 2.34998 2.46373 1.87118 2.46373 1.27924H2.66105C2.66105 1.99131 2.05663 2.54727 1.32389 2.54727C0.589786 2.54727 0 1.98998 0 1.27924C0 0.568328 0.60316 0 1.33713 0C1.58327 0 1.81434 0.0637099 2.01286 0.175122L1.91629 0.347176C1.74682 0.252069 1.54896 0.19729 1.33713 0.19729Z" fill="white"/>
<path fill-rule="evenodd" clip-rule="evenodd" d="M2.45104 0.216869C1.8693 0.26732 1.42257 0.764633 1.42257 1.33186V2.34348C2.01091 2.29738 2.46346 1.84241 2.46375 1.28217L2.45104 0.216869ZM1.22528 1.33188C1.22528 0.626358 1.80902 0.0154114 2.54849 0.0154114H2.64595L2.66107 1.28164C2.66107 1.99427 2.05607 2.54464 1.32394 2.54464H1.22528V1.33188Z" fill="white"/>
</g>
<path d="M5.11438 2.04824C4.67249 2.04824 4.35811 1.70748 4.35811 1.2348C4.35811 0.768727 4.64831 0.412575 5.11218 0.412575C5.49912 0.412575 5.72776 0.643414 5.76073 0.942407H5.44415C5.41557 0.784117 5.29686 0.680789 5.11218 0.680789C4.82199 0.680789 4.68348 0.922621 4.68348 1.2348C4.68348 1.55578 4.85057 1.78662 5.11438 1.78662C5.30125 1.78662 5.43316 1.6745 5.45295 1.50961H5.76513C5.75634 1.64812 5.69698 1.78222 5.59145 1.88115C5.48373 1.98228 5.33203 2.04824 5.11438 2.04824ZM6.20393 0.443353V1.03474H6.21053C6.29187 0.916025 6.38421 0.856666 6.5381 0.856666C6.77114 0.856666 6.92723 1.03254 6.92723 1.27877V2.01526H6.62824V1.32274C6.62824 1.20183 6.55789 1.11609 6.43257 1.11609C6.30067 1.11609 6.20393 1.22161 6.20393 1.37551V2.01526H5.90494V0.443353H6.20393ZM7.39954 0.887445V1.06772H7.40613C7.47428 0.940208 7.55123 0.874254 7.68314 0.874254C7.71612 0.874254 7.7359 0.876453 7.75349 0.883048V1.14467H7.74689C7.55123 1.12488 7.41053 1.22821 7.41053 1.46564V2.01526H7.11154V0.887445H7.39954ZM8.38431 2.04824C8.03476 2.04824 7.79512 1.78882 7.79512 1.45245C7.79512 1.11609 8.03476 0.856666 8.38431 0.856666C8.73387 0.856666 8.97351 1.11609 8.97351 1.45245C8.97351 1.78882 8.73387 2.04824 8.38431 2.04824ZM8.38431 1.8196C8.56679 1.8196 8.67012 1.6723 8.67012 1.45245C8.67012 1.23261 8.56679 1.08311 8.38431 1.08311C8.19964 1.08311 8.09851 1.23261 8.09851 1.45245C8.09851 1.6723 8.19964 1.8196 8.38431 1.8196ZM9.11249 2.01526V0.887445H9.40049V1.03914H9.40709C9.46864 0.935811 9.57857 0.856666 9.73466 0.856666C9.87756 0.856666 9.99188 0.935811 10.0468 1.05453H10.0512C10.1282 0.931414 10.2469 0.856666 10.3898 0.856666C10.6272 0.856666 10.7613 1.01056 10.7613 1.25679V2.01526H10.4624V1.30735C10.4624 1.17984 10.3986 1.11389 10.2887 1.11389C10.1634 1.11389 10.0864 1.21062 10.0864 1.36012V2.01526H9.78742V1.30735C9.78742 1.17984 9.72367 1.11389 9.61374 1.11389C9.49283 1.11389 9.41148 1.21062 9.41148 1.36012V2.01526H9.11249ZM11.6561 2.01526C11.6385 1.99328 11.6275 1.94051 11.6209 1.88995H11.6166C11.5594 1.97569 11.478 2.04164 11.2846 2.04164C11.0537 2.04164 10.8911 1.92073 10.8911 1.69648C10.8911 1.44806 11.0933 1.36891 11.3439 1.33374C11.5308 1.30735 11.6166 1.29196 11.6166 1.20622C11.6166 1.12488 11.5528 1.07212 11.4275 1.07212C11.2868 1.07212 11.2186 1.12268 11.2098 1.23041H10.9438C10.9526 1.03254 11.0999 0.858865 11.4296 0.858865C11.7682 0.858865 11.9046 1.01056 11.9046 1.27438V1.84818C11.9046 1.93392 11.9177 1.98448 11.9441 2.00427V2.01526H11.6561ZM11.3571 1.83279C11.5286 1.83279 11.6231 1.72726 11.6231 1.61734V1.44806C11.5704 1.47883 11.489 1.49642 11.4142 1.51401C11.2582 1.54919 11.1813 1.58436 11.1813 1.68989C11.1813 1.79541 11.2516 1.83279 11.3571 1.83279Z" fill="white"/>
</svg>
