<svg width="12" height="3" viewBox="0 0 12 3" fill="none" xmlns="http://www.w3.org/2000/svg">
<mask id="mask0_1_11" style="mask-type:luminance" maskUnits="userSpaceOnUse" x="0" y="0" width="4" height="3">
<path d="M3.87692 0H0V2.58462H3.87692V0Z" fill="white"/>
</mask>
<g mask="url(#mask0_1_11)">
<path d="M1.29231 0C0.578585 0 0 0.578585 0 1.29231C0 2.00603 0.578585 2.58462 1.29231 2.58462C2.00603 2.58462 2.58462 2.00603 2.58462 1.29231C2.58462 0.578585 2.00603 0 1.29231 0Z" fill="#327EFF"/>
<path d="M2.58462 0C1.8709 0 1.29231 0.578585 1.29231 1.29231C1.29231 2.00603 1.8709 2.58462 2.58462 2.58462C3.29834 2.58462 3.87693 2.00603 3.87693 1.29231C3.87693 0.578585 3.29834 0 2.58462 0Z" fill="#FFDE2D"/>
<path d="M1.29231 1.29231C1.29231 0.578585 1.8709 0 2.58462 0V1.29231H1.29231ZM2.58462 1.29231C2.58462 2.00603 2.00604 2.58462 1.29231 2.58462V1.29231H2.58462Z" fill="#FF6446"/>
</g>
<path d="M5.06141 2.06399C4.61612 2.06399 4.29932 1.72061 4.29932 1.2443C4.29932 0.774641 4.59175 0.415749 5.05919 0.415749C5.4491 0.415749 5.6795 0.648364 5.71273 0.949656H5.39372C5.36492 0.790149 5.24529 0.686026 5.05919 0.686026C4.76676 0.686026 4.62719 0.929718 4.62719 1.2443C4.62719 1.56775 4.79556 1.80036 5.06141 1.80036C5.24972 1.80036 5.38264 1.68738 5.40258 1.52123H5.71716C5.7083 1.66079 5.64849 1.79593 5.54215 1.89563C5.43359 1.99753 5.28073 2.06399 5.06141 2.06399ZM6.15934 0.446764V1.0427H6.16599C6.24795 0.923072 6.341 0.863256 6.49608 0.863256C6.73091 0.863256 6.8882 1.04049 6.8882 1.28861V2.03076H6.58691V1.33292C6.58691 1.21107 6.51602 1.12467 6.38974 1.12467C6.25682 1.12467 6.15934 1.23101 6.15934 1.38609V2.03076H5.85805V0.446764H6.15934ZM7.36414 0.894272V1.07593H7.37079C7.43946 0.947441 7.517 0.880979 7.64992 0.880979C7.68316 0.880979 7.70309 0.883195 7.72082 0.889841V1.15347H7.71417C7.517 1.13353 7.37522 1.23766 7.37522 1.47692V2.03076H7.07392V0.894272H7.36414ZM8.35649 2.06399C8.00425 2.06399 7.76277 1.80258 7.76277 1.46363C7.76277 1.12467 8.00425 0.863256 8.35649 0.863256C8.70874 0.863256 8.95022 1.12467 8.95022 1.46363C8.95022 1.80258 8.70874 2.06399 8.35649 2.06399ZM8.35649 1.83359C8.54037 1.83359 8.64449 1.68516 8.64449 1.46363C8.64449 1.24209 8.54037 1.09144 8.35649 1.09144C8.1704 1.09144 8.06849 1.24209 8.06849 1.46363C8.06849 1.68516 8.1704 1.83359 8.35649 1.83359ZM9.09027 2.03076V0.894272H9.38049V1.04713H9.38713C9.44916 0.94301 9.55993 0.863256 9.71722 0.863256C9.86122 0.863256 9.97642 0.94301 10.0318 1.06264H10.0362C10.1138 0.938579 10.2334 0.863256 10.3774 0.863256C10.6167 0.863256 10.7518 1.01833 10.7518 1.26646V2.03076H10.4505V1.31741C10.4505 1.18892 10.3863 1.12246 10.2755 1.12246C10.1492 1.12246 10.0717 1.21993 10.0717 1.37058V2.03076H9.77039V1.31741C9.77039 1.18892 9.70615 1.12246 9.59538 1.12246C9.47353 1.12246 9.39156 1.21993 9.39156 1.37058V2.03076H9.09027ZM11.6535 2.03076C11.6357 2.00861 11.6247 1.95544 11.618 1.90449H11.6136C11.556 1.99089 11.474 2.05735 11.2791 2.05735C11.0465 2.05735 10.8825 1.9355 10.8825 1.70953C10.8825 1.45919 11.0863 1.37944 11.3389 1.34399C11.5272 1.31741 11.6136 1.3019 11.6136 1.2155C11.6136 1.13353 11.5493 1.08036 11.4231 1.08036C11.2813 1.08036 11.2126 1.13132 11.2037 1.23987H10.9357C10.9445 1.04049 11.093 0.865472 11.4252 0.865472C11.7665 0.865472 11.9038 1.01833 11.9038 1.28418V1.86239C11.9038 1.94879 11.9171 1.99975 11.9437 2.01969V2.03076H11.6535ZM11.3522 1.84689C11.525 1.84689 11.6202 1.74055 11.6202 1.62978V1.45919C11.5671 1.49021 11.4851 1.50793 11.4097 1.52566C11.2525 1.5611 11.1749 1.59655 11.1749 1.70289C11.1749 1.80923 11.2458 1.84689 11.3522 1.84689Z" fill="black"/>
</svg>
